<svg width="23" height="21" viewBox="0 0 23 21" fill="none" xmlns="http://www.w3.org/2000/svg">
<path d="M10.2649 1.91468C10.2989 1.52726 10.4853 1.16918 10.7832 0.919198C11.0812 0.669213 11.4662 0.547789 11.8536 0.581626L21.1519 1.39512C21.5393 1.42908 21.8974 1.61551 22.1474 1.91343C22.3974 2.21135 22.5188 2.59636 22.4849 2.98379L21.6714 12.2821C21.6313 12.6646 21.4425 13.0159 21.1458 13.2606C20.849 13.5052 20.4681 13.6235 20.085 13.59C19.7019 13.5565 19.3472 13.3738 19.0975 13.0814C18.8478 12.7889 18.7229 12.4101 18.7497 12.0265L19.158 6.33641L2.40271 20.3958C2.10473 20.6458 1.71963 20.7672 1.33212 20.7333C0.94462 20.6994 0.586454 20.513 0.33642 20.215C0.0863863 19.917 -0.0350352 19.5319 -0.00113314 19.1444C0.032769 18.7569 0.219218 18.3987 0.517197 18.1487L17.2725 4.08934L11.598 3.50336C11.2105 3.4694 10.8525 3.28297 10.6025 2.98505C10.3525 2.68713 10.2311 2.30212 10.2649 1.91468Z" fill="white"/>
</svg>
