<svg width="24" height="20" viewBox="0 0 24 20" fill="none" xmlns="http://www.w3.org/2000/svg">
<path d="M11.1135 1.29847C11.1475 0.924462 11.3339 0.578783 11.6319 0.337453C11.9298 0.0961242 12.3148 -0.0210967 12.7022 0.0115686L22.0005 0.796899C22.3879 0.829677 22.746 1.00966 22.996 1.29726C23.246 1.58487 23.3674 1.95655 23.3336 2.33057L22.5201 11.3069C22.4799 11.6761 22.2911 12.0154 21.9944 12.2515C21.6977 12.4877 21.3167 12.6019 20.9336 12.5695C20.5505 12.5372 20.1959 12.3608 19.9461 12.0785C19.6964 11.7962 19.5715 11.4305 19.5983 11.0602L20.0066 5.5671L3.25134 19.1397C2.95336 19.3811 2.56826 19.4983 2.18076 19.4655C1.79325 19.4328 1.43509 19.2528 1.18505 18.9652C0.935019 18.6775 0.813597 18.3057 0.847499 17.9316C0.881401 17.5576 1.06785 17.2118 1.36583 16.9704L18.1211 3.39784L12.4466 2.83214C12.0592 2.79936 11.7011 2.61938 11.4511 2.33177C11.2011 2.04417 11.0797 1.67249 11.1135 1.29847Z" fill="#177A75"/>
</svg>
