<svg width="20" height="18" viewBox="0 0 20 18" fill="none" xmlns="http://www.w3.org/2000/svg">
<path d="M9.24846 1.45038C9.27769 1.11676 9.43824 0.808416 9.69478 0.593149C9.95133 0.377884 10.2829 0.273322 10.6165 0.30246L18.6234 1.00298C18.957 1.03222 19.2654 1.19276 19.4807 1.4493C19.6959 1.70585 19.8005 2.03739 19.7714 2.37101L19.0708 10.378C19.0362 10.7073 18.8737 11.0099 18.6182 11.2205C18.3626 11.4312 18.0346 11.5331 17.7047 11.5042C17.3748 11.4753 17.0694 11.3181 16.8544 11.0662C16.6393 10.8144 16.5318 10.4882 16.5549 10.1578L16.9065 5.25801L2.47816 17.3648C2.22156 17.5801 1.88994 17.6847 1.55625 17.6555C1.22257 17.6263 0.914145 17.4657 0.698836 17.2091C0.483526 16.9525 0.378968 16.6209 0.408162 16.2872C0.437355 15.9535 0.59791 15.6451 0.854506 15.4298L15.2828 3.32302L10.3964 2.81842C10.0628 2.78918 9.75441 2.62864 9.53915 2.37209C9.32388 2.11555 9.21932 1.78401 9.24846 1.45038Z" fill="white"/>
</svg>
