<svg width="34" height="40" viewBox="0 0 34 40" fill="none" xmlns="http://www.w3.org/2000/svg">
<path d="M33.5 31.8332V33.6665H0.5V31.8332L4.16667 28.1665V17.1665C4.16667 11.4832 7.88833 6.47817 13.3333 4.86484V4.33317C13.3333 3.36071 13.7196 2.42808 14.4073 1.74045C15.0949 1.05281 16.0275 0.666504 17 0.666504C17.9725 0.666504 18.9051 1.05281 19.5927 1.74045C20.2804 2.42808 20.6667 3.36071 20.6667 4.33317V4.86484C26.1117 6.47817 29.8333 11.4832 29.8333 17.1665V28.1665L33.5 31.8332ZM20.6667 35.4998C20.6667 36.4723 20.2804 37.4049 19.5927 38.0926C18.9051 38.7802 17.9725 39.1665 17 39.1665C16.0275 39.1665 15.0949 38.7802 14.4073 38.0926C13.7196 37.4049 13.3333 36.4723 13.3333 35.4998" fill="#E4A807"/>
</svg>
