<svg width="38" height="38" viewBox="0 0 38 38" fill="none" xmlns="http://www.w3.org/2000/svg">
<g clip-path="url(#clip0_1_36)">
<path fill-rule="evenodd" clip-rule="evenodd" d="M2.53333 3.8C2.53333 2.79218 2.93368 1.82563 3.64632 1.11299C4.35896 0.400356 5.3255 0 6.33333 0L27.1244 0L35.4667 8.34227V34.2C35.4667 35.2078 35.0663 36.1744 34.3537 36.887C33.641 37.5996 32.6745 38 31.6667 38H6.33333C5.3255 38 4.35896 37.5996 3.64632 36.887C2.93368 36.1744 2.53333 35.2078 2.53333 34.2V3.8ZM17.7941 25.9211L27.5525 14.7668L25.6475 13.0999L17.6725 22.2148L13.5635 18.1032L11.7699 19.8968L17.7941 25.9211Z" fill="#00BBBB"/>
</g>
<defs>
<clipPath id="clip0_1_36">
<rect width="38" height="38" fill="white"/>
</clipPath>
</defs>
</svg>
