<svg width="50" height="50" viewBox="0 0 50 50" fill="none" xmlns="http://www.w3.org/2000/svg">
<path d="M16.1428 5.2085C16.1428 4.7941 15.9782 4.39667 15.6852 4.10364C15.3922 3.81062 14.9947 3.646 14.5803 3.646C14.1659 3.646 13.7685 3.81062 13.4755 4.10364C13.1825 4.39667 13.0178 4.7941 13.0178 5.2085V8.50016C10.0178 8.73975 8.05118 9.32725 6.60535 10.7752C5.15743 12.221 4.56993 14.1897 4.32826 17.1877H45.6658C45.4241 14.1877 44.8366 12.221 43.3887 10.7752C41.9428 9.32725 39.9741 8.73975 36.9762 8.49808V5.2085C36.9762 4.7941 36.8116 4.39667 36.5185 4.10364C36.2255 3.81062 35.8281 3.646 35.4137 3.646C34.9993 3.646 34.6019 3.81062 34.3088 4.10364C34.0158 4.39667 33.8512 4.7941 33.8512 5.2085V8.36058C32.4658 8.3335 30.9116 8.3335 29.1637 8.3335H20.8303C19.0824 8.3335 17.5283 8.3335 16.1428 8.36058V5.2085Z" fill="#B55092"/>
<path fill-rule="evenodd" clip-rule="evenodd" d="M45.8345 25C45.8345 23.2521 45.8345 21.6979 45.8074 20.3125H4.19491C4.16783 21.6979 4.16783 23.2521 4.16783 25V29.1667C4.16783 37.0229 4.16783 40.9521 6.6095 43.3917C9.04908 45.8333 12.9782 45.8333 20.8345 45.8333H29.1678C37.0241 45.8333 40.9532 45.8333 43.3928 43.3917C45.8345 40.9521 45.8345 37.0229 45.8345 29.1667V25ZM29.1678 25.5208C28.2009 25.5208 27.2736 25.9049 26.5898 26.5887C25.9061 27.2724 25.522 28.1997 25.522 29.1667V33.3333C25.522 34.3003 25.9061 35.2276 26.5898 35.9113C27.2736 36.5951 28.2009 36.9792 29.1678 36.9792C30.1348 36.9792 31.0621 36.5951 31.7458 35.9113C32.4295 35.2276 32.8137 34.3003 32.8137 33.3333V29.1667C32.8137 28.1997 32.4295 27.2724 31.7458 26.5887C31.0621 25.9049 30.1348 25.5208 29.1678 25.5208ZM29.1678 28.6458C29.0297 28.6458 28.8972 28.7007 28.7995 28.7984C28.7019 28.8961 28.647 29.0285 28.647 29.1667V33.3333C28.647 33.4715 28.7019 33.6039 28.7995 33.7016C28.8972 33.7993 29.0297 33.8542 29.1678 33.8542C29.306 33.8542 29.4384 33.7993 29.5361 33.7016C29.6338 33.6039 29.6887 33.4715 29.6887 33.3333V29.1667C29.6887 29.0285 29.6338 28.8961 29.5361 28.7984C29.4384 28.7007 29.306 28.6458 29.1678 28.6458ZM22.4741 25.6396C22.7596 25.7579 23.0037 25.9582 23.1754 26.2151C23.3471 26.4721 23.4387 26.7743 23.4387 27.0833V35.4167C23.4387 35.8311 23.274 36.2285 22.981 36.5215C22.688 36.8145 22.2906 36.9792 21.8762 36.9792C21.4618 36.9792 21.0643 36.8145 20.7713 36.5215C20.4783 36.2285 20.3137 35.8311 20.3137 35.4167V30.8542L19.8553 31.3125C19.5591 31.5885 19.1674 31.7388 18.7626 31.7316C18.3578 31.7245 17.9716 31.5605 17.6853 31.2742C17.399 30.9879 17.235 30.6017 17.2279 30.1969C17.2207 29.7921 17.371 29.4004 17.647 29.1042L20.772 25.9792C20.9904 25.7606 21.2686 25.6118 21.5716 25.5513C21.8745 25.4909 22.1886 25.5216 22.4741 25.6396Z" fill="#B55092"/>
</svg>
