<svg width="30" height="30" viewBox="0 0 30 30" fill="none" xmlns="http://www.w3.org/2000/svg">
<path d="M8.54943 0.0200195H20.8518C25.5384 0.0200195 29.3463 3.8279 29.3463 8.51452V20.8169C29.3463 23.0698 28.4513 25.2304 26.8583 26.8234C25.2653 28.4164 23.1047 29.3114 20.8518 29.3114H8.54943C3.86281 29.3114 0.0549316 25.5035 0.0549316 20.8169V8.51452C0.0549316 6.26164 0.949885 4.10103 2.54291 2.508C4.13594 0.914973 6.29655 0.0200195 8.54943 0.0200195ZM8.25652 2.94916C6.85818 2.94916 5.51711 3.50465 4.52833 4.49342C3.53956 5.4822 2.98407 6.82326 2.98407 8.2216V21.1098C2.98407 24.0243 5.34202 26.3823 8.25652 26.3823H21.1447C22.5431 26.3823 23.8841 25.8268 24.8729 24.838C25.8617 23.8492 26.4172 22.5081 26.4172 21.1098V8.2216C26.4172 5.30711 24.0592 2.94916 21.1447 2.94916H8.25652ZM22.3896 5.14601C22.8751 5.14601 23.3408 5.33889 23.6841 5.68221C24.0274 6.02554 24.2203 6.49119 24.2203 6.97672C24.2203 7.46225 24.0274 7.9279 23.6841 8.27123C23.3408 8.61455 22.8751 8.80743 22.3896 8.80743C21.9041 8.80743 21.4384 8.61455 21.0951 8.27123C20.7518 7.9279 20.5589 7.46225 20.5589 6.97672C20.5589 6.49119 20.7518 6.02554 21.0951 5.68221C21.4384 5.33889 21.9041 5.14601 22.3896 5.14601ZM14.7006 7.34286C16.6428 7.34286 18.5053 8.11437 19.8786 9.48767C21.2519 10.861 22.0235 12.7236 22.0235 14.6657C22.0235 16.6078 21.2519 18.4704 19.8786 19.8437C18.5053 21.217 16.6428 21.9885 14.7006 21.9885C12.7585 21.9885 10.8959 21.217 9.52258 19.8437C8.14929 18.4704 7.37777 16.6078 7.37777 14.6657C7.37777 12.7236 8.14929 10.861 9.52258 9.48767C10.8959 8.11437 12.7585 7.34286 14.7006 7.34286ZM14.7006 10.272C13.5353 10.272 12.4178 10.7349 11.5938 11.5589C10.7698 12.3829 10.3069 13.5004 10.3069 14.6657C10.3069 15.831 10.7698 16.9485 11.5938 17.7725C12.4178 18.5965 13.5353 19.0594 14.7006 19.0594C15.8659 19.0594 16.9835 18.5965 17.8074 17.7725C18.6314 16.9485 19.0943 15.831 19.0943 14.6657C19.0943 13.5004 18.6314 12.3829 17.8074 11.5589C16.9835 10.7349 15.8659 10.272 14.7006 10.272Z" fill="white"/>
</svg>
