<svg width="29" height="29" viewBox="0 0 29 29" fill="none" xmlns="http://www.w3.org/2000/svg">
<path d="M25.7532 0.0200195C26.5836 0.0200195 27.3801 0.349907 27.9673 0.937111C28.5545 1.52431 28.8844 2.32073 28.8844 3.15117V25.0692C28.8844 25.8996 28.5545 26.696 27.9673 27.2832C27.3801 27.8704 26.5836 28.2003 25.7532 28.2003H3.83519C3.00476 28.2003 2.20834 27.8704 1.62113 27.2832C1.03393 26.696 0.704041 25.8996 0.704041 25.0692V3.15117C0.704041 2.32073 1.03393 1.52431 1.62113 0.937111C2.20834 0.349907 3.00476 0.0200195 3.83519 0.0200195H25.7532ZM24.9704 24.2864V15.9889C24.9704 14.6353 24.4327 13.3371 23.4756 12.38C22.5184 11.4228 21.2203 10.8851 19.8667 10.8851C18.5359 10.8851 16.986 11.6992 16.2345 12.9203V11.1826H11.8666V24.2864H16.2345V16.5681C16.2345 15.3626 17.2052 14.3763 18.4107 14.3763C18.992 14.3763 19.5495 14.6072 19.9605 15.0183C20.3716 15.4293 20.6025 15.9868 20.6025 16.5681V24.2864H24.9704ZM6.77846 8.72461C7.47603 8.72461 8.14502 8.4475 8.63827 7.95425C9.13152 7.461 9.40863 6.79201 9.40863 6.09444C9.40863 4.63846 8.23445 3.44862 6.77846 3.44862C6.07675 3.44862 5.40378 3.72738 4.90759 4.22357C4.4114 4.71975 4.13265 5.39273 4.13265 6.09444C4.13265 7.55043 5.32248 8.72461 6.77846 8.72461ZM8.95461 24.2864V11.1826H4.61797V24.2864H8.95461Z" fill="white"/>
</svg>
